<svg id="Layer_1" data-name="Layer 1" xmlns="http://www.w3.org/2000/svg" viewBox="0 0 450 518"><defs><style>.cls-1{fill:#fff;}</style></defs><title>Stop watch</title><path class="cls-1" d="M500,715a215,215,0,1,1,152-63A213.59,213.59,0,0,1,500,715Z" transform="translate(-275 -207)"/><path d="M500,295a204.3,204.3,0,1,1-79.79,16.1A203.79,203.79,0,0,1,500,295m0-20c-124.26,0-225,100.74-225,225S375.74,725,500,725,725,624.26,725,500,624.26,275,500,275Z" transform="translate(-275 -207)"/><circle cx="225" cy="293" r="178"/><path class="cls-1" d="M500,322A178,178,0,0,1,678,500H500Z" transform="translate(-275 -207)"/><rect x="206.5" y="10" width="37" height="68"/><rect x="160" width="130" height="19" rx="9.5"/></svg>